<mxfile host="app.diagrams.net" modified="2024-01-17T12:26:50.657Z" agent="Mozilla/5.0 (Windows NT 10.0; Win64; x64) AppleWebKit/537.36 (KHTML, like Gecko) Chrome/119.0.0.0 Safari/537.36" etag="RzlIL0lAYKKVFeq74TLa" version="22.1.20" type="github">
  <diagram name="第 1 页" id="OBv99TEN3jPcKA-b-CVp">
    <mxGraphModel dx="1050" dy="557" grid="1" gridSize="10" guides="1" tooltips="1" connect="1" arrows="1" fold="1" page="1" pageScale="1" pageWidth="827" pageHeight="1169" math="0" shadow="0">
      <root>
        <mxCell id="0" />
        <mxCell id="1" parent="0" />
        <mxCell id="HhgxqYkp_zKyCv0FOAqn-17" style="edgeStyle=orthogonalEdgeStyle;rounded=0;orthogonalLoop=1;jettySize=auto;html=1;exitX=1;exitY=0.5;exitDx=0;exitDy=0;" edge="1" parent="1" source="HhgxqYkp_zKyCv0FOAqn-11" target="HhgxqYkp_zKyCv0FOAqn-12">
          <mxGeometry relative="1" as="geometry" />
        </mxCell>
        <mxCell id="HhgxqYkp_zKyCv0FOAqn-11" value="" style="rounded=1;whiteSpace=wrap;html=1;" vertex="1" parent="1">
          <mxGeometry x="130" y="155" width="180" height="190" as="geometry" />
        </mxCell>
        <mxCell id="HhgxqYkp_zKyCv0FOAqn-3" value="" style="group" vertex="1" connectable="0" parent="1">
          <mxGeometry x="150" y="190" width="130" height="40" as="geometry" />
        </mxCell>
        <mxCell id="HhgxqYkp_zKyCv0FOAqn-4" value="脾气" style="ellipse;whiteSpace=wrap;html=1;fontSize=13;" vertex="1" parent="HhgxqYkp_zKyCv0FOAqn-3">
          <mxGeometry width="82.33333333333333" height="40" as="geometry" />
        </mxCell>
        <mxCell id="HhgxqYkp_zKyCv0FOAqn-5" value="" style="endArrow=classic;html=1;rounded=0;exitX=1;exitY=0.5;exitDx=0;exitDy=0;" edge="1" parent="HhgxqYkp_zKyCv0FOAqn-3" source="HhgxqYkp_zKyCv0FOAqn-4" target="HhgxqYkp_zKyCv0FOAqn-6">
          <mxGeometry width="50" height="50" relative="1" as="geometry">
            <mxPoint x="137.58333333333331" y="21" as="sourcePoint" />
            <mxPoint x="294.66666666666663" y="20" as="targetPoint" />
          </mxGeometry>
        </mxCell>
        <mxCell id="HhgxqYkp_zKyCv0FOAqn-6" value="气化和升清" style="text;html=1;strokeColor=#d79b00;fillColor=#ffe6cc;align=center;verticalAlign=middle;whiteSpace=wrap;rounded=0;" vertex="1" parent="HhgxqYkp_zKyCv0FOAqn-3">
          <mxGeometry x="65" y="5" width="65" height="30" as="geometry" />
        </mxCell>
        <mxCell id="HhgxqYkp_zKyCv0FOAqn-7" value="" style="group" vertex="1" connectable="0" parent="1">
          <mxGeometry x="150" y="250" width="130" height="40" as="geometry" />
        </mxCell>
        <mxCell id="HhgxqYkp_zKyCv0FOAqn-8" value="脾阳" style="ellipse;whiteSpace=wrap;html=1;fontSize=13;" vertex="1" parent="HhgxqYkp_zKyCv0FOAqn-7">
          <mxGeometry width="82.33333333333333" height="40" as="geometry" />
        </mxCell>
        <mxCell id="HhgxqYkp_zKyCv0FOAqn-9" value="" style="endArrow=classic;html=1;rounded=0;exitX=1;exitY=0.5;exitDx=0;exitDy=0;" edge="1" parent="HhgxqYkp_zKyCv0FOAqn-7" source="HhgxqYkp_zKyCv0FOAqn-8" target="HhgxqYkp_zKyCv0FOAqn-10">
          <mxGeometry width="50" height="50" relative="1" as="geometry">
            <mxPoint x="137.58333333333331" y="21" as="sourcePoint" />
            <mxPoint x="294.66666666666663" y="20" as="targetPoint" />
          </mxGeometry>
        </mxCell>
        <mxCell id="HhgxqYkp_zKyCv0FOAqn-10" value="温煦" style="text;html=1;strokeColor=#d79b00;fillColor=#ffe6cc;align=center;verticalAlign=middle;whiteSpace=wrap;rounded=0;" vertex="1" parent="HhgxqYkp_zKyCv0FOAqn-7">
          <mxGeometry x="65" y="5" width="65" height="30" as="geometry" />
        </mxCell>
        <mxCell id="HhgxqYkp_zKyCv0FOAqn-12" value="" style="shape=cylinder3;whiteSpace=wrap;html=1;boundedLbl=1;backgroundOutline=1;size=15;rotation=-90;" vertex="1" parent="1">
          <mxGeometry x="465" y="155" width="60" height="190" as="geometry" />
        </mxCell>
        <mxCell id="HhgxqYkp_zKyCv0FOAqn-16" value="" style="group" vertex="1" connectable="0" parent="1">
          <mxGeometry x="440" y="239.5" width="130" height="20" as="geometry" />
        </mxCell>
        <mxCell id="HhgxqYkp_zKyCv0FOAqn-13" value="" style="endArrow=classic;html=1;rounded=0;" edge="1" parent="HhgxqYkp_zKyCv0FOAqn-16">
          <mxGeometry width="50" height="50" relative="1" as="geometry">
            <mxPoint as="sourcePoint" />
            <mxPoint x="130" as="targetPoint" />
          </mxGeometry>
        </mxCell>
        <mxCell id="HhgxqYkp_zKyCv0FOAqn-14" value="" style="endArrow=classic;html=1;rounded=0;" edge="1" parent="HhgxqYkp_zKyCv0FOAqn-16">
          <mxGeometry width="50" height="50" relative="1" as="geometry">
            <mxPoint y="10" as="sourcePoint" />
            <mxPoint x="130" y="10" as="targetPoint" />
          </mxGeometry>
        </mxCell>
        <mxCell id="HhgxqYkp_zKyCv0FOAqn-15" value="" style="endArrow=classic;html=1;rounded=0;" edge="1" parent="HhgxqYkp_zKyCv0FOAqn-16">
          <mxGeometry width="50" height="50" relative="1" as="geometry">
            <mxPoint y="20" as="sourcePoint" />
            <mxPoint x="130" y="20" as="targetPoint" />
          </mxGeometry>
        </mxCell>
        <mxCell id="HhgxqYkp_zKyCv0FOAqn-18" value="血" style="text;html=1;strokeColor=none;fillColor=none;align=center;verticalAlign=middle;whiteSpace=wrap;rounded=0;fontSize=15;fontColor=#FF0000;fontStyle=1" vertex="1" parent="1">
          <mxGeometry x="460" y="220" width="60" height="30" as="geometry" />
        </mxCell>
      </root>
    </mxGraphModel>
  </diagram>
</mxfile>
